<svg width="11" height="13" viewBox="0 0 11 13" fill="none" xmlns="http://www.w3.org/2000/svg">
<path d="M0.779953 11.918C0.704647 11.9684 0.61707 11.9974 0.526579 12.0018C0.436088 12.0063 0.346085 11.9861 0.266188 11.9434C0.186292 11.9006 0.119505 11.837 0.0729644 11.7593C0.0264238 11.6815 0.00187919 11.5926 0.00195329 11.502V2.01003C0.00195223 1.48029 0.212117 0.972184 0.586325 0.597226C0.960533 0.222268 1.46821 0.011087 1.99795 0.0100275L7.99795 -0.000972554C8.2606 -0.00149837 8.52077 0.0497128 8.76363 0.149737C9.00648 0.249761 9.22725 0.396638 9.41334 0.581984C9.59943 0.76733 9.74719 0.987514 9.84818 1.22996C9.94918 1.47242 10.0014 1.73238 10.002 1.99503V11.501C10.002 11.5916 9.97748 11.6805 9.93094 11.7583C9.8844 11.836 9.81761 11.8996 9.73772 11.9424C9.65782 11.9851 9.56782 12.0053 9.47733 12.0008C9.38684 11.9964 9.29926 11.9674 9.22395 11.917L5.00195 9.09703L0.779953 11.917V11.918ZM9.00195 2.00003L8.99495 1.88203C8.96603 1.63861 8.84871 1.4143 8.66528 1.2517C8.48184 1.0891 8.24508 0.999541 7.99995 1.00003L1.99995 1.01003C1.73508 1.01056 1.48124 1.11615 1.29414 1.30363C1.10703 1.49111 1.00195 1.74516 1.00195 2.01003V10.567L4.72395 8.08103C4.80622 8.026 4.90297 7.99662 5.00195 7.99662C5.10093 7.99662 5.19768 8.026 5.27995 8.08103L9.00195 10.567V2.00003Z" fill="black"/>
</svg>
