<svg width="12" height="12" viewBox="0 0 12 12" fill="none" xmlns="http://www.w3.org/2000/svg">
<path d="M1.5 7.5V8.25H3.21975L0.75 10.7198L1.28025 11.25L3.75 8.78025V10.5H4.5V7.5H1.5ZM9 7.875H9.75V9.75H9V7.875ZM7.5 6H8.25V9.75H7.5V6ZM6 6.75H6.75V9.75H6V6.75Z" fill="#111827"/>
<path d="M10.5 0.75H1.5C1.30115 0.750199 1.1105 0.82928 0.969889 0.969889C0.82928 1.1105 0.750199 1.30115 0.75 1.5V6H1.5V4.875H10.5004L10.5008 10.5H6V11.25H10.5C10.6988 11.2497 10.8894 11.1706 11.03 11.03C11.1706 10.8894 11.2497 10.6988 11.25 10.5V1.5C11.2498 1.30115 11.1707 1.1105 11.0301 0.969889C10.8895 0.82928 10.6989 0.750199 10.5 0.75ZM4.5 4.125H1.5V1.5H4.5V4.125ZM5.25 4.125V1.5H10.5V4.125H5.25Z" fill="#111827"/>
</svg>
