<svg width="24" height="24" viewBox="0 0 24 24" fill="none" xmlns="http://www.w3.org/2000/svg">
<path d="M15.18 16.2405L21.219 22.281C21.2887 22.3507 21.3715 22.406 21.4626 22.4438C21.5537 22.4815 21.6514 22.5009 21.75 22.5009C21.8486 22.5009 21.9462 22.4815 22.0373 22.4438C22.1285 22.406 22.2112 22.3507 22.281 22.281C22.3507 22.2113 22.406 22.1285 22.4438 22.0374C22.4815 21.9463 22.5009 21.8486 22.5009 21.75C22.5009 21.6514 22.4815 21.5537 22.4438 21.4626C22.406 21.3715 22.3507 21.2887 22.281 21.219L2.78097 1.719C2.71124 1.64927 2.62846 1.59396 2.53735 1.55622C2.44624 1.51848 2.34859 1.49905 2.24997 1.49905C2.15136 1.49905 2.0537 1.51848 1.9626 1.55622C1.87149 1.59396 1.7887 1.64927 1.71897 1.719C1.64924 1.78873 1.59392 1.87152 1.55619 1.96263C1.51845 2.05374 1.49902 2.15139 1.49902 2.25C1.49902 2.34862 1.51845 2.44627 1.55619 2.53738C1.59392 2.62849 1.64924 2.71127 1.71897 2.781L6.56397 7.626C5.90455 8.09313 5.31119 8.64714 4.79997 9.273C4.07607 10.1612 3.5094 11.1667 3.12447 12.246C3.09297 12.3375 3.05397 12.4635 3.05397 12.4635L3.02697 12.5565C3.02697 12.5565 2.91297 13.302 3.55947 13.473C3.75161 13.5238 3.95606 13.4962 4.1279 13.3964C4.29975 13.2965 4.42493 13.1326 4.47597 12.9405L4.47747 12.936L4.48947 12.8985L4.54197 12.735C4.86891 11.8238 5.34822 10.9747 5.95947 10.224C6.43999 9.63339 7.00867 9.12037 7.64547 8.703L10.0125 11.07C9.53482 11.3694 9.1308 11.7726 8.83048 12.2497C8.53016 12.7267 8.34125 13.2654 8.27782 13.8255C8.21439 14.3856 8.27806 14.9529 8.46409 15.485C8.65013 16.0172 8.95374 16.5005 9.35235 16.8991C9.75097 17.2977 10.2343 17.6013 10.7665 17.7874C11.2986 17.9734 11.8658 18.0371 12.426 17.9737C12.9861 17.9102 13.5247 17.7213 14.0018 17.421C14.4789 17.1207 14.8821 16.7167 15.1815 16.239L15.18 16.2405ZM9.47997 6.2985L10.761 7.5795C11.1718 7.52613 11.5857 7.49957 12 7.5C15.066 7.5 16.929 8.868 18.042 10.2255C18.6533 10.9761 19.1327 11.8252 19.4595 12.7365C19.485 12.8085 19.5015 12.864 19.512 12.9L19.524 12.9375V12.942L19.5255 12.9435C19.581 13.1307 19.7073 13.2889 19.8776 13.3844C20.0478 13.4799 20.2487 13.5053 20.4374 13.4551C20.626 13.4049 20.7877 13.2831 20.888 13.1156C20.9883 12.9481 21.0193 12.748 20.9745 12.558V12.5535L20.973 12.5475L20.967 12.528C20.941 12.4333 20.911 12.3397 20.877 12.2475C20.492 11.1682 19.9254 10.1627 19.2015 9.2745C17.8575 7.632 15.594 6 12.003 6C11.076 6 10.236 6.108 9.47997 6.2985Z" fill="#999999"/>
</svg>
