<svg width="32" height="32" viewBox="0 0 32 32" fill="none" xmlns="http://www.w3.org/2000/svg">
<path d="M23.6733 18.6667C24.0671 18.6668 24.457 18.7446 24.8208 18.8954C25.1845 19.0463 25.515 19.2673 25.7933 19.5459C26.0716 19.8245 26.2924 20.1552 26.4429 20.519C26.5934 20.8829 26.6708 21.2729 26.6707 21.6667V22.8907C26.6706 23.6547 26.432 24.3996 25.988 25.0213C23.9267 27.9067 20.5613 29.3347 16.0013 29.3347C11.4387 29.3347 8.07465 27.9053 6.01865 25.02C5.57615 24.3987 5.33845 23.6548 5.33865 22.892V21.6653C5.33865 20.87 5.65458 20.1073 6.21694 19.545C6.7793 18.9826 7.54202 18.6667 8.33732 18.6667H23.6733ZM16 2.67334C16.8755 2.67334 17.7424 2.84578 18.5512 3.18081C19.36 3.51584 20.095 4.0069 20.714 4.62596C21.3331 5.24502 21.8242 5.97995 22.1592 6.78878C22.4942 7.59762 22.6667 8.46453 22.6667 9.34001C22.6667 10.2155 22.4942 11.0824 22.1592 11.8912C21.8242 12.7001 21.3331 13.435 20.714 14.0541C20.095 14.6731 19.36 15.1642 18.5512 15.4992C17.7424 15.8342 16.8755 16.0067 16 16.0067C14.2319 16.0067 12.5362 15.3043 11.2859 14.0541C10.0357 12.8038 9.33332 11.1081 9.33332 9.34001C9.33332 7.5719 10.0357 5.8762 11.2859 4.62596C12.5362 3.37572 14.2319 2.67334 16 2.67334Z" fill="#CCCCCC"/>
</svg>
