<svg width="82" height="44" viewBox="0 0 82 44" fill="none" xmlns="http://www.w3.org/2000/svg">
<path d="M7.36555 0H14.5754L18.5808 15.7143C18.5808 15.7143 19.6913 15.9079 20.9053 16.2105C23.0184 16.7372 25.1315 18.389 26.8074 20.0333C29.2244 22.4048 30.1966 25.7884 30.1966 29.1568C30.1966 33.111 28.6002 36.9229 25.7623 39.7063C22.958 42.4568 19.1696 44 15.2214 44H14.9091C10.8568 44 6.9791 42.3674 4.16858 39.4781C1.4941 36.7286 0 33.0604 0 29.2438V23.4124H6.96501V29.1249C6.96501 31.102 7.76323 32.9972 9.18213 34.3889C10.5843 35.7641 12.4785 36.5357 14.4526 36.5357H15.8998C17.8738 36.5357 19.768 35.7641 21.1702 34.3889L21.4138 34.15C22.6768 32.9112 23.3874 31.2242 23.3874 29.4643C23.3874 27.7044 22.6768 26.0174 21.4138 24.7786L20.9687 24.342C19.439 22.8417 17.3726 22 15.2191 22H12.9732L7.36555 0Z" fill="#3B82F6"/>
<path d="M38.0309 9.29811V7.0566H41.3693V9.29811H38.0309ZM41.3693 19.5758C41.3693 20.6385 41.1233 21.4023 40.6312 21.8672C40.1503 22.3431 39.373 22.5811 38.2993 22.5811C38.0086 22.5811 37.6507 22.5535 37.2257 22.4981C36.8007 22.4428 36.4652 22.3708 36.2191 22.2823V20.3064H37.0915C37.7178 20.3064 38.0309 19.9522 38.0309 19.2438V10.3275H41.3693V19.5758Z" fill="#3B82F6"/>
<path d="M46.3183 10.1283C47.8729 10.1283 49.092 10.5213 49.9755 11.3072C50.8702 12.082 51.3176 13.2166 51.3176 14.7109C51.3176 16.2053 50.8702 17.3454 49.9755 18.1313C49.092 18.9062 47.8729 19.2936 46.3183 19.2936C44.7638 19.2936 43.5447 18.9062 42.6612 18.1313C41.7777 17.3565 41.3359 16.2164 41.3359 14.7109C41.3359 13.2055 41.7777 12.0654 42.6612 11.2906C43.5447 10.5157 44.7638 10.1283 46.3183 10.1283ZM46.3183 12.3698C45.2223 12.3698 44.6743 12.9952 44.6743 14.246V15.1925C44.6743 16.4322 45.2223 17.0521 46.3183 17.0521C47.4256 17.0521 47.9792 16.4322 47.9792 15.1925V14.246C47.9792 12.9952 47.4256 12.3698 46.3183 12.3698Z" fill="#3B82F6"/>
<path d="M54.5216 11.1411C55.1591 10.4659 55.9867 10.1283 57.0045 10.1283C58.2011 10.1283 59.1238 10.5157 59.7725 11.2906C60.4211 12.0543 60.7455 13.1889 60.7455 14.6943C60.7455 16.2108 60.4211 17.3565 59.7725 18.1313C59.1238 18.9062 58.2011 19.2936 57.0045 19.2936C55.7742 19.2936 54.8348 18.8121 54.1861 17.8491L53.9009 19.0943H51.1832V7.0566H54.5216V11.1411ZM55.9644 12.5691C55.4723 12.5691 55.1032 12.7462 54.8571 13.1004C54.6111 13.4435 54.4881 13.8918 54.4881 14.4453V14.9932C54.4881 15.5467 54.6111 15.995 54.8571 16.3381C55.1032 16.6813 55.4723 16.8528 55.9644 16.8528C56.9262 16.8528 57.4071 16.2883 57.4071 15.1592V14.2792C57.4071 13.1391 56.9262 12.5691 55.9644 12.5691Z" fill="#3B82F6"/>
<path d="M41.4197 22.6309C41.6433 22.6309 41.9173 22.6642 42.2417 22.7306C42.566 22.7859 42.8288 22.8523 43.0301 22.9298V24.8725H42.4262C42.0683 24.8725 41.8279 24.9389 41.7048 25.0717C41.5818 25.2045 41.5203 25.4314 41.5203 25.7525V26.1011H43.0301V28.3426H41.5203V34.8679H38.1819V28.3426H37.0412V26.1011H38.1819V25.7358C38.1819 24.6068 38.4615 23.8098 39.0207 23.3449C39.5799 22.8689 40.3796 22.6309 41.4197 22.6309ZM43.7347 25.0717V22.8302H47.0731V25.0717H43.7347ZM43.7347 34.8679V26.1011H47.0731V34.8679H43.7347Z" fill="#3B82F6"/>
<path d="M53.4478 25.9019C54.4768 25.9019 55.2484 26.1842 55.7629 26.7487C56.2774 27.3132 56.5346 28.1268 56.5346 29.1894V34.8679H53.1962V29.5879C53.1962 29.2116 53.0955 28.9127 52.8942 28.6913C52.7041 28.4589 52.4301 28.3426 52.0722 28.3426C51.6584 28.3426 51.3229 28.4755 51.0657 28.7411C50.8084 29.0068 50.6798 29.3333 50.6798 29.7208V34.8679H47.3414V26.1011H50.0759L50.294 27.4294C50.6407 26.9645 51.0936 26.5937 51.6528 26.317C52.2232 26.0403 52.8215 25.9019 53.4478 25.9019Z" fill="#3B82F6"/>
<path d="M63.2113 34.8679L62.9261 33.6226C62.2774 34.5857 61.338 35.0672 60.1077 35.0672C58.911 35.0672 57.9884 34.6797 57.3397 33.9049C56.691 33.1301 56.3667 31.9844 56.3667 30.4679C56.3667 28.9625 56.691 27.8279 57.3397 27.0641C57.9884 26.2893 58.911 25.9019 60.1077 25.9019C61.1255 25.9019 61.9531 26.2395 62.5906 26.9147V22.8302H65.929V34.8679H63.2113ZM61.1478 28.3426C60.186 28.3426 59.7051 28.9127 59.7051 30.0528V30.9328C59.7051 32.0619 60.186 32.6264 61.1478 32.6264C61.6399 32.6264 62.009 32.4548 62.255 32.1117C62.5011 31.7686 62.6241 31.3203 62.6241 30.7668V30.2189C62.6241 29.6654 62.5011 29.2171 62.255 28.874C62.009 28.5197 61.6399 28.3426 61.1478 28.3426Z" fill="#3B82F6"/>
<path d="M70.7771 25.9019C72.3987 25.9019 73.6346 26.2782 74.4845 27.0309C75.3457 27.7836 75.7763 28.9348 75.7763 30.4845V31.0491H69.133C69.133 31.68 69.2728 32.156 69.5524 32.477C69.8432 32.798 70.2962 32.9585 70.9113 32.9585C71.4705 32.9585 71.8787 32.8423 72.1359 32.6098C72.4043 32.3774 72.5385 32.0674 72.5385 31.68H75.7763C75.7763 32.7426 75.3681 33.5728 74.5516 34.1706C73.7352 34.7683 72.5441 35.0672 70.9784 35.0672C69.3343 35.0672 68.0594 34.6908 67.1535 33.9381C66.2476 33.1743 65.7946 32.0231 65.7946 30.4845C65.7946 28.9791 66.2364 27.839 67.1199 27.0641C68.0034 26.2893 69.2225 25.9019 70.7771 25.9019ZM70.9113 28.0106C69.86 28.0106 69.2728 28.5031 69.1498 29.4883H72.4043C72.4043 29.0345 72.2701 28.6747 72.0017 28.4091C71.7445 28.1434 71.381 28.0106 70.9113 28.0106Z" fill="#3B82F6"/>
<path d="M81.0102 25.8853C81.2675 25.8853 81.4967 25.9185 81.698 25.9849C81.8993 26.0403 82 26.0735 82 26.0845V28.8574H80.9263C80.2329 28.8574 79.7297 29.0345 79.4165 29.3887C79.1145 29.7429 78.9636 30.2687 78.9636 30.966V34.8679H75.6252V26.1011H78.3596L78.5777 27.4294C78.779 26.9203 79.0978 26.5384 79.5339 26.2838C79.9701 26.0181 80.4622 25.8853 81.0102 25.8853Z" fill="#3B82F6"/>
</svg>
