<svg width="12" height="13" viewBox="0 0 12 13" fill="none" xmlns="http://www.w3.org/2000/svg">
<path d="M11.0195 6.51113C10.9216 6.39968 10.8676 6.2564 10.8676 6.10805C10.8676 5.95971 10.9216 5.81643 11.0195 5.70498L11.8013 4.82554C11.8874 4.72945 11.9409 4.60855 11.9541 4.48018C11.9672 4.35181 11.9394 4.22256 11.8746 4.11099L10.6531 1.99789C10.5889 1.88645 10.4912 1.79811 10.3739 1.74547C10.2565 1.69283 10.1256 1.67858 9.99963 1.70475L8.85148 1.93682C8.70538 1.96701 8.55329 1.94268 8.4239 1.86842C8.29451 1.79416 8.19678 1.67512 8.14914 1.53374L7.7766 0.416122C7.73563 0.29482 7.65758 0.189461 7.55346 0.114939C7.44935 0.0404169 7.32445 0.000500057 7.19642 0.000830557H4.75353C4.62035 -0.00612071 4.48856 0.030711 4.37828 0.1057C4.268 0.180689 4.1853 0.289714 4.14281 0.416122L3.8008 1.53374C3.75317 1.67512 3.65543 1.79416 3.52604 1.86842C3.39666 1.94268 3.24457 1.96701 3.09847 1.93682L1.91978 1.70475C1.80041 1.68788 1.67872 1.70671 1.57004 1.75888C1.46136 1.81105 1.37055 1.89421 1.30905 1.99789L0.0876087 4.11099C0.0211377 4.22132 -0.00874978 4.34984 0.00221909 4.47817C0.013188 4.60651 0.0644515 4.72809 0.148681 4.82554L0.924298 5.70498C1.02221 5.81643 1.07621 5.95971 1.07621 6.10805C1.07621 6.2564 1.02221 6.39968 0.924298 6.51113L0.148681 7.39057C0.0644515 7.48802 0.013188 7.6096 0.00221909 7.73794C-0.00874978 7.86627 0.0211377 7.99479 0.0876087 8.10512L1.30905 10.2182C1.37324 10.3297 1.47097 10.418 1.58831 10.4706C1.70565 10.5233 1.83661 10.5375 1.96253 10.5114L3.11068 10.2793C3.25678 10.2491 3.40887 10.2734 3.53826 10.3477C3.66765 10.4219 3.76538 10.541 3.81302 10.6824L4.18556 11.8C4.22805 11.9264 4.31075 12.0354 4.42103 12.1104C4.53131 12.1854 4.6631 12.2222 4.79628 12.2153H7.23917C7.3672 12.2156 7.4921 12.1757 7.59621 12.1012C7.70033 12.0266 7.77838 11.9213 7.81935 11.8L8.1919 10.6824C8.23953 10.541 8.33726 10.4219 8.46665 10.3477C8.59604 10.2734 8.74813 10.2491 8.89423 10.2793L10.0424 10.5114C10.1683 10.5375 10.2993 10.5233 10.4166 10.4706C10.5339 10.418 10.6317 10.3297 10.6959 10.2182L11.9173 8.10512C11.9821 7.99355 12.01 7.8643 11.9968 7.73593C11.9836 7.60756 11.9302 7.48666 11.844 7.39057L11.0195 6.51113ZM10.1096 7.3295L10.5981 7.87915L9.81642 9.23495L9.09576 9.08838C8.65591 8.99847 8.19835 9.07318 7.80995 9.29835C7.42154 9.52351 7.12933 9.88344 6.98877 10.3098L6.7567 10.9938H5.19325L4.97339 10.2976C4.83283 9.87123 4.54062 9.5113 4.15221 9.28613C3.76381 9.06097 3.30625 8.98625 2.8664 9.07617L2.14574 9.22274L1.3518 7.87304L1.84038 7.32339C2.14083 6.98748 2.30693 6.55262 2.30693 6.10195C2.30693 5.65128 2.14083 5.21641 1.84038 4.8805L1.3518 4.33085L2.13353 2.98726L2.85418 3.13384C3.29404 3.22375 3.75159 3.14903 4.14 2.92387C4.5284 2.69871 4.82062 2.33877 4.96117 1.91239L5.19325 1.22228H6.7567L6.98877 1.9185C7.12933 2.34488 7.42154 2.70481 7.80995 2.92998C8.19835 3.15514 8.65591 3.22986 9.09576 3.13994L9.81642 2.99337L10.5981 4.34917L10.1096 4.89882C9.81249 5.23396 9.64845 5.66631 9.64845 6.11416C9.64845 6.56202 9.81249 6.99436 10.1096 7.3295ZM5.97497 3.66517C5.49182 3.66517 5.01951 3.80844 4.61778 4.07687C4.21604 4.34529 3.90293 4.72682 3.71804 5.1732C3.53314 5.61958 3.48476 6.11076 3.57902 6.58464C3.67328 7.05851 3.90594 7.49379 4.24759 7.83544C4.58923 8.17708 5.02451 8.40975 5.49839 8.50401C5.97226 8.59826 6.46345 8.54989 6.90983 8.36499C7.35621 8.18009 7.73773 7.86698 8.00616 7.46525C8.27459 7.06352 8.41786 6.59121 8.41786 6.10805C8.41786 5.46016 8.16049 4.8388 7.70236 4.38067C7.24423 3.92254 6.62287 3.66517 5.97497 3.66517ZM5.97497 7.3295C5.73339 7.3295 5.49724 7.25786 5.29637 7.12365C5.09551 6.98943 4.93895 6.79867 4.84651 6.57548C4.75406 6.35229 4.72987 6.1067 4.777 5.86976C4.82413 5.63283 4.94046 5.41518 5.11128 5.24436C5.2821 5.07354 5.49974 4.95721 5.73668 4.91008C5.97362 4.86295 6.21921 4.88714 6.4424 4.97959C6.66559 5.07203 6.85635 5.22859 6.99057 5.42946C7.12478 5.63032 7.19642 5.86648 7.19642 6.10805C7.19642 6.432 7.06773 6.74268 6.83866 6.97175C6.6096 7.20081 6.29892 7.3295 5.97497 7.3295Z" fill="#222222"/>
</svg>
