<svg width="12" height="12" viewBox="0 0 12 12" fill="none" xmlns="http://www.w3.org/2000/svg">
<path d="M7.79991 11.9999C7.95904 11.9999 8.11165 11.9367 8.22417 11.8241C8.33669 11.7116 8.39991 11.559 8.39991 11.3999C8.39991 11.2407 8.33669 11.0881 8.22417 10.9756C8.11165 10.8631 7.95904 10.7999 7.79991 10.7999H2.79997C2.37563 10.7999 1.96867 10.6313 1.66861 10.3313C1.36856 10.0312 1.19999 9.62424 1.19999 9.1999V2.79997C1.19999 2.37563 1.36856 1.96867 1.66861 1.66861C1.96867 1.36856 2.37563 1.19999 2.79997 1.19999H7.79991C7.95904 1.19999 8.11165 1.13677 8.22417 1.02425C8.33669 0.911732 8.39991 0.759122 8.39991 0.599993C8.39991 0.440865 8.33669 0.288254 8.22417 0.175734C8.11165 0.0632133 7.95904 0 7.79991 0H2.79997C2.05737 0 1.34519 0.294996 0.820092 0.820092C0.294996 1.34519 0 2.05737 0 2.79997V9.1999C0 9.9425 0.294996 10.6547 0.820092 11.1798C1.34519 11.7049 2.05737 11.9999 2.79997 11.9999H7.79991ZM8.5927 2.95917C8.65059 2.90568 8.71843 2.86412 8.79238 2.83686C8.86632 2.80961 8.94491 2.79718 9.02366 2.8003C9.10241 2.80342 9.17977 2.82203 9.25132 2.85505C9.32288 2.88807 9.38723 2.93487 9.44069 2.99277L11.8407 5.59274C11.9431 5.7036 12 5.84899 12 5.99993C12 6.15088 11.9431 6.29627 11.8407 6.40713L9.44069 9.0071C9.33259 9.1239 9.18252 9.19297 9.02349 9.19913C8.86446 9.20528 8.70951 9.148 8.5927 9.0399C8.4759 8.9318 8.40683 8.78173 8.40068 8.6227C8.39453 8.46367 8.4518 8.30871 8.55991 8.19191L10.0303 6.59913H3.79996C3.64083 6.59913 3.48822 6.53591 3.3757 6.42339C3.26318 6.31087 3.19996 6.15826 3.19996 5.99913C3.19996 5.84001 3.26318 5.6874 3.3757 5.57487C3.48822 5.46235 3.64083 5.39914 3.79996 5.39914H10.0295L8.5591 3.80636C8.50562 3.74848 8.46406 3.68063 8.4368 3.60668C8.40954 3.53274 8.39712 3.45415 8.40024 3.3754C8.40336 3.29666 8.42196 3.2193 8.45499 3.14774C8.48801 3.07618 8.53481 3.01263 8.5927 2.95917Z" fill="#DC2626"/>
</svg>
